<svg id="Calque_1" data-name="Calque 1" xmlns="http://www.w3.org/2000/svg" width="200" height="50" viewBox="0 0 317.47 26.7"><title id="logo-title">Logo Crédit Agricole Nord Est</title><defs><style>.cls-1{fill:#004f36;}.cls-2{fill:#008078;}.cls-3{fill:red;}</style></defs><rect class="cls-1" x="0.77" y="41.3" width="60.8" height="5.4"/><path class="cls-1" d="M128.9,409.3l4.1,10.3,7.2-3.8-6.3-13.9h-9.1L112,425.8s6.3-.2,10.3-3.2c1.1-.7,4-8.2,6.6-13.3Z" transform="translate(-89.53 -397.6)"/><path class="cls-2" d="M140.2,415.8l-7.2,3.8c-6.2,3.2-12.1,6-15.3,6.9-8.4,2.4-18.6,3.9-22.2.6-3.4-3.1,4.5-15.9,19.5-18.7a16,16,0,0,1,3.9-.4s-1-4.4-1.8-5.3a3.51,3.51,0,0,0-3.9-1.4c-3.3.2-17.1,3.9-22.6,15.4-3,6.6,1,13.2,3.6,15.1,1.2.9,9.1,7.9,27.3.8a198.1,198.1,0,0,0,34-17.9v-7.3C155.5,407.3,148.5,411.4,140.2,415.8Z" transform="translate(-89.53 -397.6)"/><path class="cls-1" d="M135.5,426.2c.7,1.6,2.6,6.2,3.1,7.5a2.5,2.5,0,0,0,2.2,1.4h8.4L143,422.2C140.7,423.5,138.2,424.9,135.5,426.2Z" transform="translate(-89.53 -397.6)"/><path class="cls-3" d="M155.5,404.5s-9.6,5.5-11.8,6.3-2.8-.3-3.1-.6a19.47,19.47,0,0,1-1.6-4,4.89,4.89,0,0,0,1.8-.2c1.5-.4,14.6-7.7,14.7-7.7v6.2Z" transform="translate(-89.53 -397.6)"/><path class="cls-1" d="M175.2,401.6a11.79,11.79,0,0,1,6.7,2.1l-1.5,2a8.16,8.16,0,0,0-5-1.7c-3.5,0-6.3,2.2-6.3,5.4s2.8,5.4,6.3,5.4a9.14,9.14,0,0,0,5.3-1.8l1.5,2a12.36,12.36,0,0,1-7,2.2c-4.9,0-9.5-2.9-9.5-7.8S170.3,401.6,175.2,401.6Z" transform="translate(-89.53 -397.6)"/><path class="cls-1" d="M185.4,401.8h8.1c3.8,0,6.8,1.5,6.8,4.8,0,2.6-1.9,3.9-4.4,4.5l4.9,5.7H197l-4.5-5.2h-4v5.2h-3.2v-15Zm7.9,7.5c2.3,0,3.7-.9,3.7-2.6s-1.4-2.5-3.8-2.5h-4.7v5h4.8Z" transform="translate(-89.53 -397.6)"/><path class="cls-1" d="M203.9,412.5V401.8h13.6v2.4H207.1v3.6h9.5v2.3h-9.5v2.3a1.65,1.65,0,0,0,1.9,1.9h8.8v2.4h-9.6C205.5,416.9,203.9,415.3,203.9,412.5Zm10.3-14.9-2.5,2.6H209l1.9-2.6Z" transform="translate(-89.53 -397.6)"/><path class="cls-1" d="M221.6,401.8h6.8c5.8,0,9.7,3,9.7,7.5s-3.9,7.5-9.7,7.5h-6.8Zm7,12.7c3.6,0,6.1-2,6.1-5.1s-2.4-5.1-6.1-5.1h-3.8v10.2Z" transform="translate(-89.53 -397.6)"/><path class="cls-1" d="M241.5,401.8h3.2v15h-3.2Z" transform="translate(-89.53 -397.6)"/><path class="cls-1" d="M247.9,404.2v-2.4h14.8v2.4h-5.8v12.6h-3.2V404.2Z" transform="translate(-89.53 -397.6)"/><path class="cls-1" d="M284.1,413.2h-8.3l-1.8,3.6h-3.3l7.8-15h3.3l7.8,15h-3.7Zm-1.2-2.3-3-6-3,6Z" transform="translate(-89.53 -397.6)"/><path class="cls-1" d="M300,401.6a11.79,11.79,0,0,1,6.7,2.1l-1.5,2a8.16,8.16,0,0,0-5-1.7c-3.5,0-6.3,2.2-6.3,5.4s2.5,5.5,6.2,5.5a7.46,7.46,0,0,0,4.2-1.2v-2.9h-4.5v-2.3h7.7v6.3a13,13,0,0,1-7.6,2.4c-5.7,0-9.4-3.3-9.4-7.8C290.5,404.4,295.1,401.6,300,401.6Z" transform="translate(-89.53 -397.6)"/><path class="cls-1" d="M311.6,401.8h8.1c3.8,0,6.8,1.5,6.8,4.8,0,2.6-1.9,3.9-4.4,4.5l4.9,5.7h-3.8l-4.5-5.2h-4v5.2h-3.2v-15Zm7.9,7.5c2.3,0,3.7-.9,3.7-2.6s-1.4-2.5-3.8-2.5h-4.7v5h4.8Z" transform="translate(-89.53 -397.6)"/><path class="cls-1" d="M330.7,401.8h3.2v15h-3.2Z" transform="translate(-89.53 -397.6)"/><path class="cls-1" d="M346.9,401.6a11.79,11.79,0,0,1,6.7,2.1l-1.5,2a8.16,8.16,0,0,0-5-1.7c-3.5,0-6.3,2.2-6.3,5.4s2.8,5.4,6.3,5.4a9.14,9.14,0,0,0,5.3-1.8l1.5,2a12.36,12.36,0,0,1-7,2.2c-4.9,0-9.5-2.9-9.5-7.8S342.1,401.6,346.9,401.6Z" transform="translate(-89.53 -397.6)"/><path class="cls-1" d="M355.5,409.4c0-4.2,3.9-7.8,9.5-7.8s9.5,3.5,9.5,7.8-3.9,7.8-9.5,7.8S355.5,413.6,355.5,409.4Zm3.4,0c0,3,2.5,5.4,6.2,5.4s6.2-2.4,6.2-5.4-2.5-5.4-6.2-5.4S358.9,406.3,358.9,409.4Z" transform="translate(-89.53 -397.6)"/><path class="cls-1" d="M377.9,401.8h3.2v12.6h9.5v2.4H377.8v-15Z" transform="translate(-89.53 -397.6)"/><path class="cls-1" d="M393.1,412.5V401.8h13.6v2.4H396.3v3.6h9.5v2.3h-9.5v2.3a1.65,1.65,0,0,0,1.9,1.9H407v2.4h-9.6C394.7,416.9,393.1,415.3,393.1,412.5Z" transform="translate(-89.53 -397.6)"/><path class="cls-1" d="M170.8,428.2v10.7h-3.2v-15h3.2l9.2,10.7V423.9h3.2v15H180Z" transform="translate(-89.53 -397.6)"/><path class="cls-1" d="M187.1,431.4c0-4.2,3.9-7.8,9.5-7.8s9.5,3.5,9.5,7.8-3.9,7.8-9.5,7.8S187.1,435.6,187.1,431.4Zm3.4,0c0,3,2.5,5.4,6.2,5.4s6.2-2.4,6.2-5.4-2.5-5.4-6.2-5.4S190.5,428.3,190.5,431.4Z" transform="translate(-89.53 -397.6)"/><path class="cls-1" d="M210.1,423.9h8.1c3.8,0,6.8,1.5,6.8,4.8,0,2.6-1.9,3.9-4.4,4.5l4.9,5.7h-3.8l-4.5-5.2h-4v5.2H210v-15Zm7.9,7.4c2.3,0,3.7-.9,3.7-2.6s-1.4-2.5-3.8-2.5h-4.7v5H218Z" transform="translate(-89.53 -397.6)"/><path class="cls-1" d="M229.5,423.9h6.8c5.8,0,9.6,3,9.6,7.5s-3.9,7.5-9.6,7.5h-6.8Zm7,12.6c3.6,0,6.1-2,6.1-5.1s-2.4-5.1-6.1-5.1h-3.8v10.2Z" transform="translate(-89.53 -397.6)"/><path class="cls-1" d="M257.7,434.5V423.8h13.6v2.4H260.9v3.6h9.5v2.3h-9.5v2.3a1.65,1.65,0,0,0,1.9,1.9h8.8v2.4H262C259.3,438.9,257.7,437.3,257.7,434.5Z" transform="translate(-89.53 -397.6)"/><path class="cls-1" d="M274.8,436.7l1.5-2.2a12.42,12.42,0,0,0,6.9,2.1c2.4,0,4.3-.7,4.3-1.8s-2.2-1.6-4.7-2.1c-3.4-.7-7.5-1.6-7.5-4.6,0-2.8,3.5-4.5,7.4-4.5a13.83,13.83,0,0,1,7.6,2.2l-1.5,2.2a10.26,10.26,0,0,0-6.1-1.9c-2.1,0-4.2.7-4.2,1.7s2,1.4,4.3,1.9c3.5.7,7.8,1.6,7.8,4.8,0,3-3.6,4.7-7.6,4.7A16.15,16.15,0,0,1,274.8,436.7Z" transform="translate(-89.53 -397.6)"/><path class="cls-1" d="M293.1,426.3v-2.4h14.7v2.4H302v12.6h-3.2V426.3Z" transform="translate(-89.53 -397.6)"/></svg>
